<?xml version="1.0" encoding="UTF-8" standalone="no"?>
<svg
   xmlns:dc="http://purl.org/dc/elements/1.1/"
   xmlns:cc="http://creativecommons.org/ns#"
   xmlns:rdf="http://www.w3.org/1999/02/22-rdf-syntax-ns#"
   xmlns:svg="http://www.w3.org/2000/svg"
   xmlns="http://www.w3.org/2000/svg"
   xmlns:sodipodi="http://sodipodi.sourceforge.net/DTD/sodipodi-0.dtd"
   xmlns:inkscape="http://www.inkscape.org/namespaces/inkscape"
   sodipodi:docname="blossom_logo.svg"
   inkscape:version="1.0 (4035a4fb49, 2020-05-01)"
   id="svg8"
   version="1.1"
   viewBox="0 0 39.687499 39.687501"
   height="150"
   width="150">
  <defs
     id="defs2" />
  <sodipodi:namedview
     inkscape:window-maximized="1"
     inkscape:window-y="-8"
     inkscape:window-x="-8"
     inkscape:window-height="837"
     inkscape:window-width="1600"
     units="px"
     showgrid="false"
     inkscape:document-rotation="0"
     inkscape:current-layer="layer1"
     inkscape:document-units="px"
     inkscape:cy="115.26624"
     inkscape:cx="90.440692"
     inkscape:zoom="1.979899"
     inkscape:pageshadow="2"
     inkscape:pageopacity="0.0"
     borderopacity="1.0"
     bordercolor="#666666"
     pagecolor="#ffffff"
     id="base" />
  <metadata
     id="metadata5">
    <rdf:RDF>
      <cc:Work
         rdf:about="">
        <dc:format>image/svg+xml</dc:format>
        <dc:type
           rdf:resource="http://purl.org/dc/dcmitype/StillImage" />
        <dc:title></dc:title>
      </cc:Work>
    </rdf:RDF>
  </metadata>
  <g
     id="layer1"
     inkscape:groupmode="layer"
     inkscape:label="Layer 1">
    <g
       transform="translate(0.06553965,1.0010035)"
       id="g1480"
       style="fill:#33415c;fill-opacity:1">
      <path
         sodipodi:nodetypes="ccssssscsccccccsccccccscssccc"
         id="path958"
         d="m 3.0267677,14.003831 0.028738,8.782725 c 0.2336745,0.06775 0.4202974,0.0038 0.5550541,-0.204849 0.2583739,-0.400346 0.7658594,-0.757338 1.1664507,-1.137705 0.3577044,-0.339652 0.612968,-0.700984 0.8029543,-1.080206 0.2013747,-0.401949 0.2824779,-0.861736 0.1705467,-1.35379 -0.1119313,-0.49205 -0.402348,-1.009308 -0.9013653,-1.590951 l -0.00248,-0.0027 -0.1298645,-0.09596 c -0.28902,-0.213554 -0.297655,-0.220916 -0.4750729,-0.340057 0.07083,-0.07459 -0.040806,-0.165274 0.02441,-0.294027 C 4.5196733,16.30724 5.0391545,15.381136 4.6091384,14.597741 4.331291,14.208011 3.8628081,14.089905 3.2812477,13.985692 Z m 0.5042539,0.675327 c 0.3098163,0.09348 0.4687274,0.19371 0.5743351,0.341849 0.1406544,0.197299 0.2084527,0.398516 0.025025,0.911759 -0.1922287,0.492573 -0.5997571,0.405727 -0.5997571,0.405727 v 0 z M 3.6689512,17.3801 v 0 c 0,0 0.041416,-0.06377 0.1845117,0.02547 0.1425557,0.08889 0.3199171,0.131775 0.5578799,0.394236 0.4583978,0.534976 0.7507255,0.918548 0.83341,1.282033 0.082851,0.364219 0.043164,0.698426 -0.1833999,1.02212 -0.3154982,0.450758 -0.2778015,0.723657 -1.378026,1.401645 l -0.052188,-3.710925 z"
         style="color:#000000;font-style:normal;font-variant:normal;font-weight:normal;font-stretch:normal;font-size:medium;line-height:normal;font-family:sans-serif;font-variant-ligatures:normal;font-variant-position:normal;font-variant-caps:normal;font-variant-numeric:normal;font-variant-alternates:normal;font-variant-east-asian:normal;font-feature-settings:normal;font-variation-settings:normal;text-indent:0;text-align:start;text-decoration:none;text-decoration-line:none;text-decoration-style:solid;text-decoration-color:#000000;letter-spacing:normal;word-spacing:normal;text-transform:none;writing-mode:lr-tb;direction:ltr;text-orientation:mixed;dominant-baseline:auto;baseline-shift:baseline;text-anchor:start;white-space:normal;shape-padding:0;shape-margin:0;inline-size:0;clip-rule:nonzero;display:inline;overflow:visible;visibility:visible;opacity:1;isolation:auto;mix-blend-mode:normal;color-interpolation:sRGB;color-interpolation-filters:linearRGB;solid-color:#000000;solid-opacity:1;vector-effect:none;fill:#33415c;fill-opacity:1;fill-rule:nonzero;stroke:none;stroke-width:0.580067;stroke-linecap:butt;stroke-linejoin:miter;stroke-miterlimit:4;stroke-dasharray:none;stroke-dashoffset:0;stroke-opacity:1;color-rendering:auto;image-rendering:auto;shape-rendering:auto;text-rendering:auto;enable-background:accumulate;stop-color:#000000;stop-opacity:1" />
      <path
         sodipodi:nodetypes="cccssccscc"
         id="path960"
         d="M 8.4301896,15.807262 C 8.1763637,15.585526 8.0357535,15.692681 7.8905128,15.863211 l 0.1573675,4.578154 0.00108,0.01123 c 0.028388,0.277793 0.172333,0.528737 0.3970644,0.650496 0.2247313,0.121764 0.4274703,0.06352 0.6554991,-0.06909 0.1504056,-0.06959 0.086739,-0.173845 -0.06072,-0.380707 -0.1802233,0.0374 -0.3184643,-0.06019 -0.3184643,-0.06019 -0.05433,0.01382 -0.1507347,-0.105666 -0.1658892,-0.245709 -0.1765857,-1.352484 -0.1007219,-2.945831 -0.1263408,-4.54016 z"
         style="color:#000000;font-style:normal;font-variant:normal;font-weight:normal;font-stretch:normal;font-size:medium;line-height:normal;font-family:sans-serif;font-variant-ligatures:normal;font-variant-position:normal;font-variant-caps:normal;font-variant-numeric:normal;font-variant-alternates:normal;font-variant-east-asian:normal;font-feature-settings:normal;font-variation-settings:normal;text-indent:0;text-align:start;text-decoration:none;text-decoration-line:none;text-decoration-style:solid;text-decoration-color:#000000;letter-spacing:normal;word-spacing:normal;text-transform:none;writing-mode:lr-tb;direction:ltr;text-orientation:mixed;dominant-baseline:auto;baseline-shift:baseline;text-anchor:start;white-space:normal;shape-padding:0;shape-margin:0;inline-size:0;clip-rule:nonzero;display:inline;overflow:visible;visibility:visible;opacity:1;isolation:auto;mix-blend-mode:normal;color-interpolation:sRGB;color-interpolation-filters:linearRGB;solid-color:#000000;solid-opacity:1;vector-effect:none;fill:#33415c;fill-opacity:1;fill-rule:nonzero;stroke:none;stroke-width:0.580067;stroke-linecap:butt;stroke-linejoin:miter;stroke-miterlimit:4;stroke-dasharray:none;stroke-dashoffset:0;stroke-opacity:1;color-rendering:auto;image-rendering:auto;shape-rendering:auto;text-rendering:auto;enable-background:accumulate;stop-color:#000000;stop-opacity:1" />
      <path
         sodipodi:nodetypes="sssssssscssccsssssssssccs"
         id="path962"
         d="m 18.414902,16.983813 c -0.09325,-0.0092 -0.141544,-0.03573 -0.251004,-0.02612 -0.235508,0.02072 -0.522142,0.0619 -0.667625,0.232638 -0.02499,0.0293 -0.08601,0.06255 -0.112773,0.09201 -0.151469,0.16671 -0.284826,0.338654 -0.33268,0.601374 -0.08497,0.466484 0.08157,0.710483 0.290832,0.97942 0.209248,0.268931 0.492184,0.555371 0.623026,0.646961 0.154739,0.108315 0.314951,0.207985 0.408495,0.311729 0.09354,0.10375 0.129833,0.105628 0.08733,0.300757 0.0088,-0.04037 -0.06812,0.05278 -0.147599,0.08803 -0.07949,0.03524 -0.221455,0.03729 -0.355891,0.05798 -0.268878,0.04134 -0.441837,0.143702 -0.441837,0.143702 -0.129234,0.124258 -0.06928,0.375013 0.04825,0.424076 0,0 0.227683,0.09633 0.553153,0.03837 0.194589,-0.03465 0.354245,-0.113917 0.513728,-0.184654 0.159483,-0.07074 0.32622,-0.160293 0.376621,-0.391695 0.07915,-0.363431 -0.04771,-0.726716 -0.241035,-0.870856 -0.214499,-0.159909 -0.386163,-0.278473 -0.502125,-0.359642 -0.13985,-0.0979 -0.309981,-0.235234 -0.448438,-0.41318 -0.138451,-0.177946 -0.176299,-0.338152 -0.122363,-0.634284 0.03022,-0.166051 0.117463,-0.343274 0.221294,-0.413681 0.103825,-0.07041 0.162829,-0.05321 0.3229,-0.07359 0.320148,-0.04075 0.496491,0.03632 0.496491,0.03632 0.38218,-0.05578 0.345362,-0.399876 0.04582,-0.514074 0,0 -0.07195,-0.04274 -0.364591,-0.07158 z"
         style="color:#000000;font-style:normal;font-variant:normal;font-weight:normal;font-stretch:normal;font-size:medium;line-height:normal;font-family:sans-serif;font-variant-ligatures:normal;font-variant-position:normal;font-variant-caps:normal;font-variant-numeric:normal;font-variant-alternates:normal;font-variant-east-asian:normal;font-feature-settings:normal;font-variation-settings:normal;text-indent:0;text-align:start;text-decoration:none;text-decoration-line:none;text-decoration-style:solid;text-decoration-color:#000000;letter-spacing:normal;word-spacing:normal;text-transform:none;writing-mode:lr-tb;direction:ltr;text-orientation:mixed;dominant-baseline:auto;baseline-shift:baseline;text-anchor:start;white-space:normal;shape-padding:0;shape-margin:0;inline-size:0;clip-rule:nonzero;display:inline;overflow:visible;visibility:visible;opacity:1;isolation:auto;mix-blend-mode:normal;color-interpolation:sRGB;color-interpolation-filters:linearRGB;solid-color:#000000;solid-opacity:1;vector-effect:none;fill:#33415c;fill-opacity:1;fill-rule:nonzero;stroke:none;stroke-width:0.580067;stroke-linecap:butt;stroke-linejoin:miter;stroke-miterlimit:4;stroke-dasharray:none;stroke-dashoffset:0;stroke-opacity:1;color-rendering:auto;image-rendering:auto;shape-rendering:auto;text-rendering:auto;enable-background:accumulate;stop-color:#000000;stop-opacity:1" />
      <path
         sodipodi:nodetypes="csccccccssssccccccccccc"
         id="path964"
         d="m 32.009919,17.064675 c -0.146795,0.199479 -0.13205,0.468724 -0.123027,0.791322 0.01117,0.39925 0.03719,0.868077 0.01776,1.243165 l 0.0027,1.360126 c 0.208406,0.214785 0.395651,0.133211 0.57997,0.01069 l -0.02439,-1.440275 0.0076,-0.875762 0.06523,-0.302846 c 0.0702,0.05105 0.139827,0.0696 0.200456,0.146569 0,0 0.189489,0.221941 0.321907,0.298118 0.317051,0.182409 0.717661,0.251057 1.094136,0.237894 0.582652,-0.02035 1.206434,-0.110506 1.622161,-0.387593 0.07966,-0.05311 0.05766,0.05777 0.127355,0.0056 l 0.01954,0.667459 0.01171,1.580334 c 0.187283,0.144621 0.33112,0.306969 0.534706,0.06324 l 0.01,-1.815736 0.05192,-1.686578 c -0.212027,-0.02035 -0.416429,-0.01959 -0.53733,0.211439 0,0 -0.262682,0.259255 -0.626582,0.501791 -0.881688,0.629529 -1.776846,0.221504 -2.306722,-0.157886 -0.363038,-0.27523 -0.53992,-0.458772 -0.53992,-0.458772 -0.144825,-0.04204 -0.361294,-0.05964 -0.508877,0.0078 z"
         style="color:#000000;font-style:normal;font-variant:normal;font-weight:normal;font-stretch:normal;font-size:medium;line-height:normal;font-family:sans-serif;font-variant-ligatures:normal;font-variant-position:normal;font-variant-caps:normal;font-variant-numeric:normal;font-variant-alternates:normal;font-variant-east-asian:normal;font-feature-settings:normal;font-variation-settings:normal;text-indent:0;text-align:start;text-decoration:none;text-decoration-line:none;text-decoration-style:solid;text-decoration-color:#000000;letter-spacing:normal;word-spacing:normal;text-transform:none;writing-mode:lr-tb;direction:ltr;text-orientation:mixed;dominant-baseline:auto;baseline-shift:baseline;text-anchor:start;white-space:normal;shape-padding:0;shape-margin:0;inline-size:0;clip-rule:nonzero;display:inline;overflow:visible;visibility:visible;opacity:1;isolation:auto;mix-blend-mode:normal;color-interpolation:sRGB;color-interpolation-filters:linearRGB;solid-color:#000000;solid-opacity:1;vector-effect:none;fill:#33415c;fill-opacity:1;fill-rule:nonzero;stroke:none;stroke-width:0.580067;stroke-linecap:butt;stroke-linejoin:miter;stroke-miterlimit:4;stroke-dasharray:none;stroke-dashoffset:0;stroke-opacity:1;color-rendering:auto;image-rendering:auto;shape-rendering:auto;text-rendering:auto;enable-background:accumulate;stop-color:#000000;stop-opacity:1" />
      <path
         sodipodi:nodetypes="sssssssssss"
         id="path966"
         d="m 12.887988,17.006512 c -1.053702,0 -1.852365,0.935479 -1.852365,1.989181 0,1.053702 0.860004,1.961187 1.913706,1.961193 1.053702,0 1.914482,-0.907491 1.914482,-1.961193 0,-1.053702 -0.922121,-1.989181 -1.975823,-1.989181 z m 0.03341,0.564417 c 0.740209,0 1.392756,0.592825 1.392756,1.333033 0,0.216388 -0.0062,0.429106 -0.09914,0.629508 -0.224969,0.485125 -0.732691,0.871634 -1.256512,0.871634 -0.740209,0 -1.395055,-0.663082 -1.395055,-1.403291 0,-0.740208 0.617738,-1.430879 1.357946,-1.430884 z"
         style="color:#000000;font-style:normal;font-variant:normal;font-weight:normal;font-stretch:normal;font-size:medium;line-height:normal;font-family:sans-serif;font-variant-ligatures:normal;font-variant-position:normal;font-variant-caps:normal;font-variant-numeric:normal;font-variant-alternates:normal;font-variant-east-asian:normal;font-feature-settings:normal;font-variation-settings:normal;text-indent:0;text-align:start;text-decoration:none;text-decoration-line:none;text-decoration-style:solid;text-decoration-color:#000000;letter-spacing:normal;word-spacing:normal;text-transform:none;writing-mode:lr-tb;direction:ltr;text-orientation:mixed;dominant-baseline:auto;baseline-shift:baseline;text-anchor:start;white-space:normal;shape-padding:0;shape-margin:0;inline-size:0;clip-rule:nonzero;display:inline;overflow:visible;visibility:visible;opacity:1;isolation:auto;mix-blend-mode:normal;color-interpolation:sRGB;color-interpolation-filters:linearRGB;solid-color:#000000;solid-opacity:1;vector-effect:none;fill:#33415c;fill-opacity:1;fill-rule:nonzero;stroke:none;stroke-width:0.580067;stroke-linecap:butt;stroke-linejoin:miter;stroke-miterlimit:4;stroke-dasharray:none;stroke-dashoffset:0;stroke-opacity:1;color-rendering:auto;image-rendering:auto;shape-rendering:auto;text-rendering:auto;enable-background:accumulate;stop-color:#000000;stop-opacity:1" />
      <path
         style="color:#000000;font-style:normal;font-variant:normal;font-weight:normal;font-stretch:normal;font-size:medium;line-height:normal;font-family:sans-serif;font-variant-ligatures:normal;font-variant-position:normal;font-variant-caps:normal;font-variant-numeric:normal;font-variant-alternates:normal;font-variant-east-asian:normal;font-feature-settings:normal;font-variation-settings:normal;text-indent:0;text-align:start;text-decoration:none;text-decoration-line:none;text-decoration-style:solid;text-decoration-color:#000000;letter-spacing:normal;word-spacing:normal;text-transform:none;writing-mode:lr-tb;direction:ltr;text-orientation:mixed;dominant-baseline:auto;baseline-shift:baseline;text-anchor:start;white-space:normal;shape-padding:0;shape-margin:0;inline-size:0;clip-rule:nonzero;display:inline;overflow:visible;visibility:visible;opacity:1;isolation:auto;mix-blend-mode:normal;color-interpolation:sRGB;color-interpolation-filters:linearRGB;solid-color:#000000;solid-opacity:1;vector-effect:none;fill:#33415c;fill-opacity:1;fill-rule:nonzero;stroke:none;stroke-width:0.580067;stroke-linecap:butt;stroke-linejoin:miter;stroke-miterlimit:4;stroke-dasharray:none;stroke-dashoffset:0;stroke-opacity:1;color-rendering:auto;image-rendering:auto;shape-rendering:auto;text-rendering:auto;enable-background:accumulate;stop-color:#000000;stop-opacity:1"
         d="m 22.609046,16.901252 c -0.09325,-0.0092 -0.141538,-0.03573 -0.250998,-0.02612 -0.235514,0.02072 -0.522147,0.0619 -0.667631,0.232638 -0.02499,0.0293 -0.08601,0.06255 -0.112768,0.09201 -0.151474,0.166709 -0.284831,0.338648 -0.332685,0.601374 -0.08497,0.466484 0.08157,0.710482 0.290832,0.979414 0.209248,0.268937 0.492185,0.555371 0.623027,0.646961 0.154739,0.108321 0.314956,0.207985 0.4085,0.311735 0.09354,0.103749 0.129833,0.105622 0.08733,0.300757 0.0088,-0.04037 -0.06812,0.05278 -0.147599,0.08803 -0.07949,0.03524 -0.221456,0.03729 -0.355892,0.05797 -0.268878,0.04134 -0.441837,0.143708 -0.441837,0.143708 -0.129233,0.124258 -0.06928,0.375013 0.04825,0.424076 0,0 0.227684,0.09633 0.553153,0.03837 0.19459,-0.03465 0.354246,-0.113917 0.513729,-0.184659 0.159483,-0.07074 0.326219,-0.160287 0.376621,-0.391689 0.07916,-0.363431 -0.04771,-0.726717 -0.241035,-0.870856 -0.214494,-0.15991 -0.386163,-0.278474 -0.50212,-0.359643 -0.139855,-0.0979 -0.309986,-0.235239 -0.448443,-0.413179 -0.138452,-0.177946 -0.1763,-0.338152 -0.122358,-0.634279 0.03022,-0.166051 0.117458,-0.343285 0.221288,-0.413692 0.103831,-0.0704 0.162829,-0.05321 0.322901,-0.07359 0.320148,-0.04075 0.496491,0.03632 0.496491,0.03632 0.382179,-0.05578 0.345362,-0.399881 0.04582,-0.514079 0,0 -0.07195,-0.04274 -0.364591,-0.07157 z"
         id="path968"
         sodipodi:nodetypes="sssssssscssccsssssssssccs" />
      <path
         sodipodi:nodetypes="scccsccccscccccccccccscccccsccccssccssscsscscccccccccc"
         d="m 27.44829,16.806553 c -0.293018,5.39e-4 -0.597601,0.05667 -0.896259,0.173164 -0.263756,0.10172 -0.677443,0.427557 -0.808231,0.628364 -0.658705,1.055008 -0.140658,2.319032 0.670417,2.845875 -0.206301,0.08883 -0.402165,0.202674 -0.573629,0.319069 -0.220662,0.149801 -0.432916,0.362751 -0.535365,0.540179 -0.3624,0.872745 1.371422,0.17807 1.756041,-0.04927 0.0613,-0.04031 0.162657,-0.348266 -0.194935,-0.346792 0,0 -0.498693,0.338297 -1.071447,0.36165 0.0834,-0.127922 0.398996,-0.339728 0.503091,-0.400675 0.256314,-0.150055 0.436635,-0.205119 0.584995,-0.21492 0.107414,0.02731 0.216738,0.04123 0.326419,0.04026 0.01198,0.0032 0.02407,0.0059 0.03616,0.009 l -0.03481,2.304655 0.0238,0.596009 0.153579,0.08668 0.118159,-0.09511 0.05327,-0.08121 0.116988,-2.895506 c 0.103112,-0.02812 0.197536,-0.05386 0.284323,-0.07947 0.468379,0.153552 0.813558,0.437946 0.971665,0.663007 -0.293714,-0.07389 -0.453424,-0.143023 -0.570374,-0.240474 -0.124992,-0.10416 -0.236448,-0.178945 -0.236448,-0.178945 -0.875924,0.232061 0.824275,0.992448 1.096488,0.966878 0.392262,-0.07968 0.187196,-0.549181 0.04172,-0.757851 -0.164874,-0.234699 -0.414399,-0.491175 -0.762184,-0.684464 0.281441,-0.192243 0.492923,-0.520254 0.801657,-1.237941 0.265737,-1.420863 -0.705512,-2.274244 -1.855031,-2.272101 z m -0.127954,0.357122 c 0.926471,0.01695 1.546728,0.64388 1.609046,1.340347 -0.0092,-0.07287 -0.03119,-0.144685 -0.06485,-0.210927 -0.436871,-0.529735 -1.176718,-1.018401 -1.854609,-0.610921 -0.206868,0.127081 -0.349124,0.384112 -0.329739,0.609583 0.01938,0.225465 0.141507,0.39884 0.392602,0.469069 0.251089,0.07023 0.495195,-0.0032 0.911813,-0.128121 0.04733,-0.141156 0.03702,-0.250907 -0.09272,-0.295728 -0.365023,0.109352 -0.616723,0.05627 -0.752103,0.0184 -0.135376,-0.03789 -0.112002,-0.11783 -0.114134,-0.142656 -0.0022,-0.02483 0.07379,-0.09524 0.180137,-0.160568 0.103048,-0.0633 0.284265,-0.06839 0.542279,-0.04533 0.469895,0.174568 0.666444,0.352012 0.732242,0.481521 0.03357,0.06604 0.03157,0.09728 0.01479,0.137717 -0.01576,0.03794 -0.02709,0.134582 -0.12082,0.189997 -0.744343,0.287092 -1.323519,0.118764 -1.664985,-0.05817 -0.345066,-0.178798 -0.47173,-0.553083 -0.471099,-0.815867 0.0089,-0.424551 0.777701,-0.767765 1.082182,-0.778322 z m 1.61379,1.422627 c 0.0032,0.123206 -0.01112,0.2479 -0.04436,0.37116 -0.154232,0.526325 -0.618342,1.043086 -1.444566,1.285671 -1.222965,-0.109411 -1.357201,-0.968394 -1.413949,-1.314269 -0.03988,-0.294206 0.05885,-0.01279 0.479723,0.211665 0.469992,0.243534 1.23256,0.385979 2.073944,-0.07968 0,0 0.139989,0.07216 0.308178,-0.269547 0.02704,-0.06512 0.04026,-0.134782 0.04107,-0.205001 z"
         style="color:#000000;font-style:normal;font-variant:normal;font-weight:normal;font-stretch:normal;font-size:medium;line-height:normal;font-family:sans-serif;font-variant-ligatures:normal;font-variant-position:normal;font-variant-caps:normal;font-variant-numeric:normal;font-variant-alternates:normal;font-variant-east-asian:normal;font-feature-settings:normal;font-variation-settings:normal;text-indent:0;text-align:start;text-decoration:none;text-decoration-line:none;text-decoration-style:solid;text-decoration-color:#000000;letter-spacing:normal;word-spacing:normal;text-transform:none;writing-mode:lr-tb;direction:ltr;text-orientation:mixed;dominant-baseline:auto;baseline-shift:baseline;text-anchor:start;white-space:normal;shape-padding:0;shape-margin:0;inline-size:0;clip-rule:nonzero;display:inline;overflow:visible;visibility:visible;opacity:1;isolation:auto;mix-blend-mode:normal;color-interpolation:sRGB;color-interpolation-filters:linearRGB;solid-color:#000000;solid-opacity:1;vector-effect:none;fill:#33415c;fill-opacity:1;fill-rule:nonzero;stroke:none;stroke-width:0.430968;stroke-linecap:butt;stroke-linejoin:miter;stroke-miterlimit:4;stroke-dasharray:none;stroke-dashoffset:0;stroke-opacity:1;color-rendering:auto;image-rendering:auto;shape-rendering:auto;text-rendering:auto;enable-background:accumulate;stop-color:#000000;stop-opacity:1"
         id="path970" />
    </g>
  </g>
</svg>
