<svg xmlns="http://www.w3.org/2000/svg" viewBox="0 0 39.7 39.7" height="150" width="150">
<path d="m13.1 4.9c-7.4 3.9-7 17.9 0.8 20.3 4.5-0.4 7.3 1.2 10.5 0.2 5.1-2.3 8.7-8.8 7.7-13.8-1.5 1-1.1 3.1-2.7 3.6C28.1 15 30.5 8.9 23.1 8.6 14.1 8.2 19.2 14.3 16.6 13 14 11.7 11.2 9.9 11.1 7.1 11.1 6.7 12.3 4.9 12.3 4.5Z" style="fill:#b77f7e;stroke-width:0.07"/>
<path d="m22 24.9c0 0-3.6-1.2-7-0.1-11.8 3.4-7.5 7.4-3.6 6.2 6.2-1.9 8.7-2.9 8.7-2.9z" style="fill:#41946b;stroke-width:0.03px"/>
<path d="m22.9 25.9c0 0-0.7 2.3 1.3 4.2 7.6 6.4 8.7 3 2-5.2z" style="fill:#3c8f65;stroke-width:0.02px"/>
<path d="m21.4 2.3c-1.8 0-3.7 0.4-5.5 1.1-1.6 0.6-4.2 2.6-5 3.9-4.1 6.5-0.9 14.4 4.1 17.6-1.3 0.5-2.5 1.3-3.6 2-1.4 0.9-2.7 2.2-3.3 3.3-2.2 5.4 8.5 1.1 10.9-0.3 0.4-0.2 1-2.2-1.2-2.1 0 0-3.1 2.1-6.6 2.2 0.5-0.8 2.5-2.1 3.1-2.5 1.6-0.9 2.7-1.3 3.6-1.3 0.7 0.2 1.3 0.3 2 0.2 0.1 0 0.1 0 0.2 0.1v11.7h2.7V25.5c0.6-0.2 1.2-0.3 1.8-0.5 2.9 1 5 2.7 6 4.1-1.8-0.5-2.8-0.9-3.5-1.5-0.8-0.6-1.5-1.1-1.5-1.1-5.4 1.4 5.1 6.1 6.8 6 2.4-0.5 1.2-3.4 0.3-4.7-1-1.5-2.6-3-4.7-4.2 1.7-1.2 3.1-3.2 5-7.7C33.8 7.2 27.8 1.9 20.7 1.9Zm-0.8 2.2c5.7 0.1 9.6 4 10 8.3-0.1-0.5-0.2-0.9-0.4-1.3-2.7-3.3-7.3-6.3-11.5-3.8-1.3 0.8-2.2 2.4-2 3.8 0.1 1.4 0.9 2.5 2.4 2.9 1.6 0.4 3.1 0 5.6-0.8 0.3-0.9 0.2-1.6-0.6-1.8-2.3 0.7-3.8 0.3-4.7 0.1-0.8-0.2-0.7-0.7-0.7-0.9 0-0.2 0.5-0.6 1.1-1 0.6-0.4 1.8-0.4 3.4-0.3 2.9 1.1 4.1 2.2 4.5 3 0.2 0.4 0.2 0.6 0.1 0.9-0.1 0.2-0.2 0.8-0.7 1.2-4.6 1.8-8.2 0.7-10.3-0.4-2.1-1.1-2.9-3.4-2.9-5.1 0.1-2.6 4.8-4.8 6.7-4.8zm10 8.8c0 0.8-0.1 1.5-0.3 2.3-1 3.3-3.8 6.5-8.9 8-7.6-0.7-8.4-6-8.8-8.1-0.2-1.8 0.4-0.1 3 1.3 2.9 1.5 7.6 2.4 12.8-0.5 0 0 0.9 0.4 1.9-1.7 0.2-0.4 0.2-0.8 0.3-1.3z" style="baseline-shift:baseline;color-interpolation-filters:linearRGB;color-interpolation:sRGB;color-rendering:auto;direction:ltr;dominant-baseline:auto;fill:#4a3637;font-family:sans-serif;font-feature-settings:normal;font-size:medium;font-variant-alternates:normal;font-variant-caps:normal;font-variant-east-asian:normal;font-variant-ligatures:normal;font-variant-numeric:normal;font-variant-position:normal;font-variation-settings:normal;image-rendering:auto;inline-size:0;isolation:auto;letter-spacing:normal;line-height:normal;mix-blend-mode:normal;shape-margin:0;shape-padding:0;shape-rendering:auto;solid-color:#000;solid-opacity:1;stop-color:#000;stroke-width:3;text-align:start;text-decoration-color:#000;text-decoration-line:none;text-decoration-style:solid;text-decoration:none;text-indent:0;text-orientation:mixed;text-rendering:auto;text-transform:none;vector-effect:none;white-space:normal;word-spacing:normal"/>
</svg>
