<svg xmlns="http://www.w3.org/2000/svg" viewBox="0 0 26.5 26.5" height="100" width="100">
<style>.a{fill:none;stroke-width:2;stroke:#4a3637;}</style>
<path d="M8.6 2.9C3 5.8 4.3 15.1 10.1 16.3c3-0.3 3.5 1.1 5.7 0.4 3.4-1.5 6.1-6 5.5-9.3-1 0.7-1.1 2.9-3.4 3.1C19.3 8.5 19.8 5.7 14.9 5.5 8.9 5.2 12.9 9.3 11.2 8.4 9.7 9.3 7.1 5.3 8.6 2.9Z" style="fill:#b77f7e;stroke-width:0.05"/>
<path d="m14.2 16.4c0 0-2.4-0.8-4.7-0.1-7.9 2.3-5 4.9-2.4 4.1 4.1-1.3 5.8-1.9 5.8-1.9z" style="fill:#41946b;stroke-width:0.02px"/>
<path d="m14.7 16.9c2 6.6 10.5 7 2.3-0.8z" style="fill:#3c8f65;stroke-width:0.01px"/>
<g stroke="#4a3637">
<path d="M15.6 8.4C10.2 9.9 10.2 6.1 12.9 5.1 15.1 4.1 19.8 6.8 18.9 9.1 17.7 11.7 12.7 11.7 10.4 10.5 2 6.2 12-0.5 17.3 2.8 20.5 4.8 22.7 10.1 18.6 14.1 12.4 20 4.7 13.1 6.8 7" class="a"/>
<path d="m12.1 18.8c-1.4 1.3-7.1 3.2-6.6 1.7 1.1-3 8-5.2 8.2-3.3v8" class="a"/>
<path d="m16 17.9c0.5 0.8 3.5 2.8 5.1 2.6 0.6-0.6-1.5-3.7-4.5-4.8" class="a"/>
</g></svg>