<?xml version="1.0" encoding="UTF-8" standalone="no"?>
<svg
   xmlns:dc="http://purl.org/dc/elements/1.1/"
   xmlns:cc="http://creativecommons.org/ns#"
   xmlns:rdf="http://www.w3.org/1999/02/22-rdf-syntax-ns#"
   xmlns:svg="http://www.w3.org/2000/svg"
   xmlns="http://www.w3.org/2000/svg"
   id="svg870"
   version="1.1"
   viewBox="0 0 26.458333 26.458334"
   height="100"
   width="100">
  <defs
     id="defs864" />
  <metadata
     id="metadata867">
    <rdf:RDF>
      <cc:Work
         rdf:about="">
        <dc:format>image/svg+xml</dc:format>
        <dc:type
           rdf:resource="http://purl.org/dc/dcmitype/StillImage" />
        <dc:title></dc:title>
      </cc:Work>
    </rdf:RDF>
  </metadata>
  <g
     id="layer1">
    <path
       id="path970"
       style="color:#000000;font-style:normal;font-variant:normal;font-weight:normal;font-stretch:normal;font-size:medium;line-height:normal;font-family:sans-serif;font-variant-ligatures:normal;font-variant-position:normal;font-variant-caps:normal;font-variant-numeric:normal;font-variant-alternates:normal;font-variant-east-asian:normal;font-feature-settings:normal;font-variation-settings:normal;text-indent:0;text-align:start;text-decoration:none;text-decoration-line:none;text-decoration-style:solid;text-decoration-color:#000000;letter-spacing:normal;word-spacing:normal;text-transform:none;writing-mode:lr-tb;direction:ltr;text-orientation:mixed;dominant-baseline:auto;baseline-shift:baseline;text-anchor:start;white-space:normal;shape-padding:0;shape-margin:0;inline-size:0;clip-rule:nonzero;display:inline;overflow:visible;visibility:visible;opacity:1;isolation:auto;mix-blend-mode:normal;color-interpolation:sRGB;color-interpolation-filters:linearRGB;solid-color:#000000;solid-opacity:1;vector-effect:none;fill:#b08f26;fill-opacity:1;fill-rule:nonzero;stroke:none;stroke-width:1.28944;stroke-linecap:butt;stroke-linejoin:miter;stroke-miterlimit:4;stroke-dasharray:none;stroke-dashoffset:0;stroke-opacity:1;color-rendering:auto;image-rendering:auto;shape-rendering:auto;text-rendering:auto;enable-background:accumulate;stop-color:#000000;stop-opacity:1"
       d="M 13.516109,2.9170427 C 12.639403,2.918629 11.728088,3.0865989 10.834521,3.4351378 10.045365,3.7394837 8.8076177,4.7143891 8.4163114,5.3152002 6.445474,8.4717495 7.995466,12.25368 10.422187,13.829987 9.8049382,14.095753 9.2189152,14.436384 8.7058991,14.784641 8.0456759,15.23283 7.4106218,15.869982 7.1040937,16.40084 c -1.0842825,2.611232 4.1032653,0.532779 5.2540343,-0.147413 0.183406,-0.12065 0.486675,-1.042 -0.583233,-1.037605 0,0 -1.49208,1.012182 -3.2057455,1.08206 0.2495361,-0.382733 1.1937786,-1.016454 1.5052365,-1.198811 0.766874,-0.448967 1.30639,-0.613715 1.750289,-0.643037 0.321373,0.08162 0.648471,0.123424 0.976637,0.120481 0.03581,0.0089 0.07199,0.01776 0.108131,0.02672 l -0.104213,6.895485 0.07127,1.783244 0.459508,0.259339 0.353524,-0.284584 0.159293,-0.242986 0.35003,-8.663277 c 0.308508,-0.08421 0.59103,-0.161175 0.850685,-0.237763 1.401381,0.459415 2.434161,1.310315 2.9072,1.983695 -0.878778,-0.221077 -1.356634,-0.42792 -1.706542,-0.719503 -0.373971,-0.311637 -0.70745,-0.535393 -0.70745,-0.535393 -2.620735,0.694322 2.466207,2.969375 3.280663,2.892872 1.173641,-0.238404 0.560086,-1.64314 0.124791,-2.267463 -0.4933,-0.702223 -1.239873,-1.469591 -2.280438,-2.047894 0.842072,-0.575192 1.474819,-1.55659 2.398548,-3.7039002 C 19.861386,5.4639251 16.955443,2.910633 13.516109,2.9170427 Z m -0.382844,1.0685005 c 2.771979,0.050601 4.627788,1.926467 4.814231,4.0102803 -0.02736,-0.218041 -0.09334,-0.432887 -0.194032,-0.631079 -1.30711,-1.5849567 -3.520701,-3.0470329 -5.548943,-1.8278583 -0.618935,0.380222 -1.044568,1.1492494 -0.986573,1.8238473 0.05799,0.674588 0.423394,1.19332 1.174656,1.403452 0.751251,0.210132 1.481613,-0.0099 2.728123,-0.383333 0.141705,-0.422335 0.110715,-0.750708 -0.277424,-0.884823 -1.092145,0.327192 -1.845223,0.168356 -2.250267,0.05505 -0.405055,-0.113284 -0.335119,-0.35255 -0.341494,-0.426813 -0.0064,-0.07427 0.220761,-0.2849584 0.538966,-0.4804249 0.308319,-0.1894032 0.850515,-0.2046404 1.622485,-0.1356895 1.405916,0.5223024 1.993983,1.0532164 2.190857,1.4407014 0.10039,0.197602 0.09439,0.291068 0.04416,0.412045 -0.04712,0.113499 -0.08107,0.402665 -0.361497,0.568463 -2.22705,0.8589783 -3.959933,0.355342 -4.981589,-0.174044 C 10.272495,8.2203595 9.8935212,7.1005065 9.8954122,6.3142653 9.9221122,5.0440193 12.222268,4.0171341 13.133265,3.985545 Z m 4.828428,4.2564703 c 0.0094,0.368631 -0.03327,0.741712 -0.132785,1.110492 C 17.367451,10.927266 15.978841,12.473399 13.506815,13.199207 9.8477152,12.871856 9.4460925,10.3018 9.2763003,9.2669395 c -0.1193095,-0.880249 0.176079,-0.03824 1.4353237,0.6333013 1.406206,0.7286582 3.687782,1.1548522 6.205191,-0.238394 0,0 0.41885,0.215885 0.922063,-0.8064743 0.08089,-0.194847 0.1205,-0.403274 0.122815,-0.613359 z" />
  </g>
</svg>
