<?xml version="1.0" encoding="UTF-8" standalone="no"?>
<svg
   xmlns:dc="http://purl.org/dc/elements/1.1/"
   xmlns:cc="http://creativecommons.org/ns#"
   xmlns:rdf="http://www.w3.org/1999/02/22-rdf-syntax-ns#"
   xmlns:svg="http://www.w3.org/2000/svg"
   xmlns="http://www.w3.org/2000/svg"
   id="svg855"
   version="1.1"
   viewBox="0 0 39.687499 39.687501"
   height="150"
   width="150">
  <defs
     id="defs849" />
  <metadata
     id="metadata852">
    <rdf:RDF>
      <cc:Work
         rdf:about="">
        <dc:format>image/svg+xml</dc:format>
        <dc:type
           rdf:resource="http://purl.org/dc/dcmitype/StillImage" />
        <dc:title></dc:title>
      </cc:Work>
    </rdf:RDF>
  </metadata>
  <g
     id="layer1">
    <g
       transform="translate(-0.75587578,-0.38837268)"
       id="g1454">
      <path
         d="m 13.097095,4.9107358 c -7.3900527,3.9426883 -6.9544044,17.9077212 0.82067,20.2943982 4.467364,-0.442423 7.314056,1.159273 10.502206,0.193509 5.135094,-2.25989 8.669778,-8.764222 7.663715,-13.805067 -1.453276,1.009163 -1.079615,3.050411 -2.720039,3.645909 C 28.859618,15.422458 31.29749,9.2826611 23.835214,8.9499741 14.89982,8.5516051 19.960762,14.681696 17.335162,13.363438 14.709567,12.045175 11.993126,10.317266 11.877546,7.4739901 11.863376,7.1256612 13.068307,5.2690807 13.097095,4.9107358 Z"
         style="opacity:1;fill:#b77f7e;fill-opacity:1;stroke:none;stroke-width:0.0740602"
         id="path893" />
      <path
         id="path895"
         d="m 22.039414,24.932923 c 0,0 -3.595524,-1.169064 -6.99419,-0.07975 -11.7824587,3.388594 -7.4688475,7.381498 -3.643365,6.249928 6.187323,-1.917197 8.707058,-2.866509 8.707058,-2.866509 z"
         style="opacity:1;fill:#41946b;fill-opacity:1;stroke:none;stroke-width:0.0266774px;stroke-linecap:butt;stroke-linejoin:miter;stroke-opacity:1" />
      <path
         style="opacity:1;fill:#3c8f65;fill-opacity:1;stroke:none;stroke-width:0.020349px;stroke-linecap:butt;stroke-linejoin:miter;stroke-opacity:1"
         d="m 22.858854,25.93002 c 0,0 -0.697063,2.297968 1.274479,4.177341 7.580407,6.366579 8.685605,2.997956 1.9528,-5.195375 z"
         id="path897" />
      <path
         id="path878"
         style="color:#000000;font-style:normal;font-variant:normal;font-weight:normal;font-stretch:normal;font-size:medium;line-height:normal;font-family:sans-serif;font-variant-ligatures:normal;font-variant-position:normal;font-variant-caps:normal;font-variant-numeric:normal;font-variant-alternates:normal;font-variant-east-asian:normal;font-feature-settings:normal;font-variation-settings:normal;text-indent:0;text-align:start;text-decoration:none;text-decoration-line:none;text-decoration-style:solid;text-decoration-color:#000000;letter-spacing:normal;word-spacing:normal;text-transform:none;writing-mode:lr-tb;direction:ltr;text-orientation:mixed;dominant-baseline:auto;baseline-shift:baseline;text-anchor:start;white-space:normal;shape-padding:0;shape-margin:0;inline-size:0;clip-rule:nonzero;display:inline;overflow:visible;visibility:visible;opacity:1;isolation:auto;mix-blend-mode:normal;color-interpolation:sRGB;color-interpolation-filters:linearRGB;solid-color:#000000;solid-opacity:1;vector-effect:none;fill:#4a3637;fill-opacity:1;fill-rule:nonzero;stroke:none;stroke-width:2.66774;stroke-linecap:butt;stroke-linejoin:miter;stroke-miterlimit:4;stroke-dasharray:none;stroke-dashoffset:0;stroke-opacity:1;color-rendering:auto;image-rendering:auto;shape-rendering:auto;text-rendering:auto;enable-background:accumulate;stop-color:#000000;stop-opacity:1"
         d="m 21.446337,2.2752093 c -1.813812,0.0035 -3.69928,0.3508391 -5.547975,1.0719442 -1.632699,0.6296613 -4.193514,2.6466176 -5.003064,3.8896485 -4.0775212,6.53065 -0.870754,14.355136 4.149906,17.616398 -1.277004,0.549838 -2.489412,1.254597 -3.550809,1.975122 -1.365939,0.92725 -2.679838,2.245518 -3.314049,3.3438 -2.2433104,5.402441 8.489371,1.102287 10.870233,-0.304969 0.379447,-0.24963 1.006908,-2.155795 -1.206688,-2.146699 0,0 -3.08703,2.094078 -6.632475,2.238662 0.516265,-0.791852 2.469866,-2.102944 3.114278,-2.480221 1.586585,-0.92888 2.702798,-1.269708 3.621207,-1.330384 0.66487,0.168866 1.341616,0.255305 2.020607,0.249219 0.07407,0.01835 0.148904,0.0367 0.223687,0.05528 v 11.736051 h 2.667639 V 25.93004 c 0.638272,-0.174232 1.222829,-0.333468 1.760036,-0.491918 2.899352,0.950482 5.03612,2.711008 6.01483,4.104159 -1.818127,-0.457365 -2.806858,-0.885391 -3.530803,-1.488675 -0.773685,-0.644743 -1.463563,-1.107688 -1.463563,-1.107688 -5.422117,1.4365 5.102377,6.143418 6.787436,5.985133 2.428176,-0.493238 1.158742,-3.399451 0.258175,-4.691117 -1.020625,-1.452841 -2.56521,-3.040505 -4.718054,-4.236977 1.742174,-1.190025 3.051257,-3.220493 4.962372,-7.6631 C 34.574193,7.5444969 28.562064,2.261938 21.446337,2.2752093 Z m -0.792092,2.2106852 c 5.735012,0.1047002 9.574531,3.9857126 9.960278,8.2969515 -0.05658,-0.451104 -0.193193,-0.895597 -0.401514,-1.305632 -2.704283,-3.2791635 -7.283993,-6.3040777 -11.480271,-3.7816874 -1.280515,0.7866415 -2.16112,2.3776714 -2.041139,3.7733514 0.119977,1.395676 0.875961,2.468881 2.430257,2.903623 1.554286,0.434737 3.065413,-0.0205 5.644369,-0.793132 0.293173,-0.873775 0.229002,-1.553116 -0.574036,-1.830588 -2.25956,0.676931 -3.817622,0.348349 -4.655633,0.113951 -0.838017,-0.234393 -0.693327,-0.729461 -0.706539,-0.883116 -0.0132,-0.153655 0.456765,-0.589472 1.115089,-0.9938919 0.637862,-0.391848 1.759616,-0.423386 3.356776,-0.280737 2.908748,1.0805899 4.125486,2.1789769 4.532771,2.9806299 0.207725,0.408845 0.195294,0.602198 0.09139,0.852483 -0.09749,0.234818 -0.167781,0.833131 -0.747958,1.176154 -4.607608,1.777153 -8.192812,0.735201 -10.306512,-0.360045 -2.136038,-1.106813 -2.920084,-3.423743 -2.916184,-5.0504259 0.05523,-2.6280356 4.814078,-4.7525423 6.698857,-4.8178886 z m 9.989666,8.8063265 c 0.0197,0.762659 -0.06889,1.534519 -0.274747,2.297488 -0.954717,3.258067 -3.827602,6.456888 -8.941999,7.958534 -7.570401,-0.677256 -8.401372,-5.994523 -8.752656,-8.135581 -0.246839,-1.821167 0.364325,-0.07916 2.969583,1.310217 2.909368,1.507527 7.629687,2.389353 12.838009,-0.493168 0,0 0.866609,0.446654 1.90775,-1.668542 0.167352,-0.403114 0.249265,-0.834301 0.25406,-1.268948 z" />
    </g>
  </g>
</svg>
