<?xml version="1.0" encoding="UTF-8" standalone="no"?>
<svg
   xmlns:dc="http://purl.org/dc/elements/1.1/"
   xmlns:cc="http://creativecommons.org/ns#"
   xmlns:rdf="http://www.w3.org/1999/02/22-rdf-syntax-ns#"
   xmlns:svg="http://www.w3.org/2000/svg"
   xmlns="http://www.w3.org/2000/svg"
   xmlns:sodipodi="http://sodipodi.sourceforge.net/DTD/sodipodi-0.dtd"
   xmlns:inkscape="http://www.inkscape.org/namespaces/inkscape"
   inkscape:version="1.0 (4035a4fb49, 2020-05-01)"
   sodipodi:docname="logo.svg"
   width="100"
   height="100"
   viewBox="0 0 26.458333 26.458334"
   version="1.1"
   id="svg870">
  <sodipodi:namedview
     inkscape:current-layer="svg870"
     inkscape:window-maximized="1"
     inkscape:window-y="-8"
     inkscape:window-x="-8"
     inkscape:cy="20.941698"
     inkscape:cx="17.094742"
     inkscape:zoom="1.675"
     showgrid="false"
     id="namedview1453"
     inkscape:window-height="837"
     inkscape:window-width="1600"
     inkscape:pageshadow="2"
     inkscape:pageopacity="0"
     guidetolerance="10"
     gridtolerance="10"
     objecttolerance="10"
     borderopacity="1"
     bordercolor="#666666"
     pagecolor="#ffffff" />
  <defs
     id="defs864">
    <rect
       id="rect1097"
       height="116.89015"
       width="73.693314"
       y="64.144684"
       x="45.435818" />
    <rect
       id="rect2363"
       height="116.89015"
       width="73.693314"
       y="64.144684"
       x="45.435818" />
  </defs>
  <metadata
     id="metadata867">
    <rdf:RDF>
      <cc:Work
         rdf:about="">
        <dc:format>image/svg+xml</dc:format>
        <dc:type
           rdf:resource="http://purl.org/dc/dcmitype/StillImage" />
        <dc:title></dc:title>
      </cc:Work>
    </rdf:RDF>
  </metadata>
  <g
     style="fill:#710004;fill-opacity:1"
     id="layer1">
    <g
       aria-label="Blossom"
       transform="matrix(1.093649,0,0,1.093649,-47.014964,-59.278961)"
       id="text1095"
       style="font-style:normal;font-variant:normal;font-weight:normal;font-stretch:normal;font-size:4.93889px;line-height:1;font-family:'Gen W01';-inkscape-font-specification:'Gen W01';white-space:pre;shape-inside:url(#rect1097);fill:#710004;fill-opacity:1;stroke:none">
      <path
         d="m 46.735382,66.980534 q 0,0.520899 0.04341,0.588423 0.07476,0.118167 0.320738,0.118167 l 0.0217,-0.0024 q 0.282154,0 0.431671,-0.163986 0.151929,-0.166399 0.151929,-0.422025 v -0.06752 q 0,-0.274918 -0.192926,-0.450963 -0.192925,-0.178456 -0.504017,-0.178456 H 46.88731 q -0.106109,0 -0.130224,0.041 -0.02412,0.041 -0.02412,0.151929 v 0.303857 l 0.0024,0.01929 z m 0.214629,-2.013658 q -0.144694,0 -0.178456,0.06752 -0.03376,0.06752 -0.03376,0.349677 v 0.455786 q 0,0.260449 0.125402,0.260449 l 0.03376,0.0048 0.05064,0.0024 h 0.03617 q 0.27733,0 0.434082,-0.156752 0.159164,-0.159163 0.159164,-0.405143 v -0.041 q 0,-0.219452 -0.142283,-0.376204 -0.139871,-0.156752 -0.342442,-0.156752 l -0.03376,-0.0048 z m -0.911572,0.629419 q 0,-0.299035 -0.03617,-0.41479 -0.03617,-0.118167 -0.161575,-0.212218 -0.12299,-0.09646 -0.12299,-0.156752 0,-0.101285 0.149517,-0.120578 0.151929,-0.0217 0.795818,-0.0217 l 0.373793,-0.0048 q 0.614949,0 0.882633,0.18569 0.327973,0.229099 0.327973,0.639066 0,0.352089 -0.383439,0.602892 -0.173633,0.115755 -0.173633,0.120578 0.0024,0.0096 0.103698,0.04823 0.27733,0.108521 0.414789,0.255627 0.204984,0.224275 0.204984,0.501606 v 0.0627 q 0,0.424436 -0.352089,0.665593 -0.349678,0.241157 -0.952569,0.241157 h -0.378616 l -0.0627,-0.0024 h -0.364147 l -0.241157,0.0024 h -0.05788 q -0.303858,0 -0.303858,-0.113344 0,-0.09164 0.132636,-0.171221 0.135048,-0.07958 0.178456,-0.20016 0.04582,-0.12299 0.04582,-0.711413 l -0.0024,-0.192925 -0.0048,-0.130225 q -0.0024,-0.06511 -0.0024,-0.127813 l -0.0048,-0.127813 q -0.0024,-0.06511 -0.0024,-0.125401 l -0.0024,-0.127814 z"
         style="font-style:normal;font-variant:normal;font-weight:bold;font-stretch:normal;font-family:'Averia Serif';-inkscape-font-specification:'Averia Serif Bold';fill:#710004;fill-opacity:1"
         id="path2384" />
      <path
         d="m 49.648555,64.566556 h 0.07958 q 0.113344,0 0.125401,0.127813 0.0024,0.02653 0.0024,1.005623 0,0.976685 0.0627,1.367359 0.0627,0.388262 0.09646,0.463021 0.03376,0.07476 0.118167,0.173633 0.08682,0.09887 0.08682,0.173633 0,0.07235 -0.06511,0.09646 -0.06511,0.02412 -0.299034,0.02412 h -0.09887 l -0.04823,-0.0024 -0.241156,-0.0048 q -0.376205,0 -0.424436,-0.0217 -0.04582,-0.0217 -0.04582,-0.110932 0,-0.02412 0.07235,-0.118167 0.07235,-0.09646 0.08923,-0.20016 0.07717,-0.494371 0.07717,-1.32395 0,-0.831991 -0.03376,-0.995978 -0.03135,-0.166398 -0.147105,-0.291799 -0.113344,-0.127813 -0.113344,-0.149518 v -0.03135 q 0,-0.07958 0.127813,-0.110932 0.279742,-0.06994 0.578776,-0.06994 z"
         style="font-style:normal;font-variant:normal;font-weight:bold;font-stretch:normal;font-family:'Averia Serif';-inkscape-font-specification:'Averia Serif Bold';fill:#710004;fill-opacity:1"
         id="path2386" />
      <path
         d="m 51.782792,67.740178 h 0.06511 q 0.195337,0 0.301446,-0.197748 0.142283,-0.267684 0.142283,-0.634243 v -0.02653 l -0.0024,-0.02894 q 0,-0.395497 -0.137459,-0.651123 -0.137459,-0.258037 -0.356912,-0.258037 h -0.0217 q -0.219453,0 -0.344854,0.236333 -0.125402,0.236334 -0.125402,0.60048 v 0.05547 q 0,0.381028 0.139871,0.643889 0.139871,0.260449 0.340031,0.260449 z m 1.198549,-1.010447 v 0.07958 q 0,0.520899 -0.381027,0.882634 -0.332797,0.315915 -0.844049,0.315915 -0.511252,0 -0.803052,-0.27733 -0.342443,-0.327973 -0.342443,-0.774113 v -0.07958 q 0,-0.238745 0.09646,-0.467844 0.185691,-0.448552 0.655946,-0.641477 0.21463,-0.08923 0.448552,-0.08923 h 0.07717 q 0.475079,0 0.793406,0.318327 0.139871,0.139871 0.219452,0.342443 0.07958,0.20016 0.07958,0.390673 z"
         style="font-style:normal;font-variant:normal;font-weight:bold;font-stretch:normal;font-family:'Averia Serif';-inkscape-font-specification:'Averia Serif Bold';fill:#710004;fill-opacity:1"
         id="path2388" />
      <path
         d="m 53.634876,67.966866 q -0.156752,0 -0.207395,-0.103698 -0.04823,-0.106109 -0.04823,-0.385851 v -0.05788 q 0,-0.130225 0.09646,-0.130225 0.07958,0 0.255626,0.176045 0.176044,0.176044 0.279742,0.236333 0.106109,0.06029 0.260449,0.06029 0.15434,0 0.265272,-0.06511 0.110932,-0.06752 0.110932,-0.204983 0,-0.139871 -0.120578,-0.219453 -0.118167,-0.07958 -0.443728,-0.204983 -0.325562,-0.127813 -0.46061,-0.258038 -0.197748,-0.192925 -0.197748,-0.472667 0,-0.282153 0.236333,-0.470256 0.236334,-0.188102 0.542603,-0.188102 h 0.06752 q 0.103697,0 0.24598,0.02653 0.144694,0.02653 0.311092,0.02653 0.16881,0 0.219453,0.07958 0.05064,0.07717 0.05064,0.429259 0,0.103698 -0.07717,0.103698 -0.07717,0 -0.311092,-0.195337 -0.233922,-0.195337 -0.390674,-0.195337 -0.156752,0 -0.265272,0.06029 -0.106109,0.05788 -0.106109,0.190514 0,0.132636 0.171221,0.229099 0.01447,0.0072 0.376205,0.15434 0.361735,0.147106 0.501606,0.27733 0.197748,0.185691 0.197748,0.438906 v 0.06511 q 0,0.270095 -0.24598,0.467844 -0.24598,0.195337 -0.595657,0.195337 h -0.06752 q -0.07476,0 -0.282153,-0.03617 -0.204983,-0.03376 -0.217041,-0.03376 l -0.05306,0.0024 q -0.05064,0.0024 -0.09887,0.0024 z"
         style="font-style:normal;font-variant:normal;font-weight:bold;font-stretch:normal;font-family:'Averia Serif';-inkscape-font-specification:'Averia Serif Bold';fill:#710004;fill-opacity:1"
         id="path2390" />
      <path
         d="m 55.843872,67.966866 q -0.156752,0 -0.207395,-0.103698 -0.04823,-0.106109 -0.04823,-0.385851 v -0.05788 q 0,-0.130225 0.09646,-0.130225 0.07958,0 0.255627,0.176045 0.176044,0.176044 0.279741,0.236333 0.106109,0.06029 0.26045,0.06029 0.15434,0 0.265272,-0.06511 0.110932,-0.06752 0.110932,-0.204983 0,-0.139871 -0.120578,-0.219453 -0.118167,-0.07958 -0.443729,-0.204983 -0.325561,-0.127813 -0.460609,-0.258038 -0.197748,-0.192925 -0.197748,-0.472667 0,-0.282153 0.236333,-0.470256 0.236334,-0.188102 0.542603,-0.188102 h 0.06752 q 0.103697,0 0.24598,0.02653 0.144694,0.02653 0.311092,0.02653 0.168809,0 0.219452,0.07958 0.05064,0.07717 0.05064,0.429259 0,0.103698 -0.07717,0.103698 -0.07717,0 -0.311092,-0.195337 -0.233922,-0.195337 -0.390674,-0.195337 -0.156752,0 -0.265272,0.06029 -0.106109,0.05788 -0.106109,0.190514 0,0.132636 0.171221,0.229099 0.01447,0.0072 0.376204,0.15434 0.361736,0.147106 0.501606,0.27733 0.197749,0.185691 0.197749,0.438906 v 0.06511 q 0,0.270095 -0.24598,0.467844 -0.24598,0.195337 -0.595657,0.195337 h -0.06752 q -0.07476,0 -0.282153,-0.03617 -0.204984,-0.03376 -0.217041,-0.03376 l -0.05306,0.0024 q -0.05064,0.0024 -0.09887,0.0024 z"
         style="font-style:normal;font-variant:normal;font-weight:bold;font-stretch:normal;font-family:'Averia Serif';-inkscape-font-specification:'Averia Serif Bold';fill:#710004;fill-opacity:1"
         id="path2392" />
      <path
         d="m 58.97891,67.740178 h 0.06511 q 0.195337,0 0.301446,-0.197748 0.142282,-0.267684 0.142282,-0.634243 v -0.02653 l -0.0024,-0.02894 q 0,-0.395497 -0.13746,-0.651123 -0.137459,-0.258037 -0.356912,-0.258037 h -0.0217 q -0.219452,0 -0.344854,0.236333 -0.125401,0.236334 -0.125401,0.60048 v 0.05547 q 0,0.381028 0.139871,0.643889 0.13987,0.260449 0.340031,0.260449 z m 1.198549,-1.010447 v 0.07958 q 0,0.520899 -0.381028,0.882634 -0.332796,0.315915 -0.844049,0.315915 -0.511252,0 -0.803052,-0.27733 -0.342442,-0.327973 -0.342442,-0.774113 v -0.07958 q 0,-0.238745 0.09646,-0.467844 0.18569,-0.448552 0.655946,-0.641477 0.214629,-0.08923 0.448551,-0.08923 h 0.07717 q 0.475078,0 0.793405,0.318327 0.139871,0.139871 0.219453,0.342443 0.07958,0.20016 0.07958,0.390673 z"
         style="font-style:normal;font-variant:normal;font-weight:bold;font-stretch:normal;font-family:'Averia Serif';-inkscape-font-specification:'Averia Serif Bold';fill:#710004;fill-opacity:1"
         id="path2394" />
      <path
         d="m 60.838228,66.961242 q 0,-0.69212 -0.09164,-0.880222 -0.05547,-0.113344 -0.05547,-0.144694 0,-0.04823 0.113343,-0.09887 0.113344,-0.05064 0.325562,-0.05064 0.214629,0 0.253214,0.02653 0.041,0.02653 0.0844,0.127813 0.04341,0.101286 0.08682,0.101286 0.0048,0 0.209806,-0.08682 0.207395,-0.08923 0.395497,-0.08923 0.190514,0 0.294211,0.03376 0.103698,0.03376 0.212218,0.101286 0.108521,0.06511 0.139871,0.06511 0.03376,0 0.284565,-0.151928 0.250803,-0.154341 0.395497,-0.154341 h 0.09646 q 0.127813,0 0.27733,0.07958 0.149517,0.07958 0.255626,0.262861 0.106109,0.183279 0.106109,0.701766 0,0.516075 0.03135,0.602892 0.03135,0.08441 0.122989,0.171221 0.09405,0.08682 0.09405,0.180868 0,0.09405 -0.183279,0.151928 -0.180868,0.05547 -0.443729,0.05547 -0.262861,0 -0.262861,-0.125402 0,-0.01447 0.01206,-0.08682 0.01447,-0.07235 0.01447,-0.229099 0,-0.156752 -0.0024,-0.219453 l -0.0096,-0.202572 0.0048,-0.106109 0.01447,-0.212217 q 0,-0.272508 -0.08682,-0.419613 -0.08441,-0.149517 -0.2918,-0.149517 -0.204983,0 -0.265272,0.168809 -0.06029,0.16881 -0.06029,0.887457 0,0.171221 0.07717,0.299034 0.07958,0.127814 0.07958,0.195337 0,0.06511 -0.103697,0.108521 -0.103697,0.041 -0.482313,0.041 -0.378617,0 -0.431671,-0.02653 -0.05305,-0.02653 -0.05305,-0.118166 l 0.06511,-0.135048 q 0.03617,-0.07476 0.05788,-0.178456 0.02171,-0.106109 0.02171,-0.516076 0,-0.409966 -0.07958,-0.622184 -0.05547,-0.149517 -0.233922,-0.149517 -0.178456,0 -0.308681,0.207395 -0.07717,0.125401 -0.07717,0.419612 0,0.588423 0.03859,0.817522 0.03858,0.229099 0.03858,0.238745 0,0.125401 -0.284565,0.125401 h -0.09164 q -0.407555,0 -0.516076,-0.10852 l -0.03858,-0.06511 q 0,-0.108521 0.103698,-0.207395 0.106109,-0.101286 0.125401,-0.207395 0.0217,-0.108521 0.0217,-0.429259 z"
         style="font-style:normal;font-variant:normal;font-weight:bold;font-stretch:normal;font-family:'Averia Serif';-inkscape-font-specification:'Averia Serif Bold';fill:#710004;fill-opacity:1"
         id="path2396" />
    </g>
  </g>
</svg>
